<?xml version="1.0" encoding="UTF-8" standalone="no"?>
<!-- Created with Inkscape (http://www.inkscape.org/) -->

<svg
   xmlns:dc="http://purl.org/dc/elements/1.1/"
   xmlns:cc="http://creativecommons.org/ns#"
   xmlns:rdf="http://www.w3.org/1999/02/22-rdf-syntax-ns#"
   xmlns:svg="http://www.w3.org/2000/svg"
   xmlns="http://www.w3.org/2000/svg"
   xmlns:sodipodi="http://sodipodi.sourceforge.net/DTD/sodipodi-0.dtd"
   xmlns:inkscape="http://www.inkscape.org/namespaces/inkscape"
   width="83.546982mm"
   height="68.125099mm"
   viewBox="0 0 83.546982 68.125099"
   version="1.1"
   id="svg24669"
   inkscape:version="0.92.4 (5da689c313, 2019-01-14)"
   sodipodi:docname="head.svg"
   inkscape:export-filename="C:\Users\rsr\projects\owl\public\svg\head.png"
   inkscape:export-xdpi="91.206161"
   inkscape:export-ydpi="91.206161">
  <defs
     id="defs24663">
    <radialGradient
       gradientUnits="userSpaceOnUse"
       gradientTransform="matrix(0.26458333,0,0,0.34710687,-155.13856,-89.470987)"
       r="26.1696"
       cy="555.56732"
       cx="1129.7748"
       id="SVGID_00000135668303358632940530000013551124524289579141_">
      <stop
         id="stop6042"
         style="stop-color:#000000"
         offset="0.2366" />
      <stop
         id="stop6044"
         style="stop-color:#603913"
         offset="0.4946" />
      <stop
         id="stop6046"
         style="stop-color:#FAA829"
         offset="0.7634" />
    </radialGradient>
    <radialGradient
       gradientUnits="userSpaceOnUse"
       gradientTransform="matrix(1,0,0,0.9283,0,-9.9753)"
       r="29.3442"
       cy="548.90771"
       cx="1062.0017"
       id="SVGID_00000044155583812745971030000004623724518828457897_">
      <stop
         id="stop6076"
         style="stop-color:#EDC56A"
         offset="0.2634" />
      <stop
         id="stop6078"
         style="stop-color:#EDC468"
         offset="0.5807" />
      <stop
         id="stop6080"
         style="stop-color:#EEBF61"
         offset="0.7127" />
      <stop
         id="stop6082"
         style="stop-color:#EFB854"
         offset="0.8102" />
      <stop
         id="stop6084"
         style="stop-color:#F1AC43"
         offset="0.8908" />
      <stop
         id="stop6086"
         style="stop-color:#F49E2D"
         offset="0.9601" />
      <stop
         id="stop6088"
         style="stop-color:#F7941D"
         offset="1" />
    </radialGradient>
    <radialGradient
       gradientUnits="userSpaceOnUse"
       gradientTransform="matrix(-1,0,0,0.9283,2301.0574,-9.9753)"
       r="29.3442"
       cy="548.90771"
       cx="1099.8439"
       id="SVGID_00000157288002426651083930000006185072360762710692_">
      <stop
         id="stop6116"
         style="stop-color:#EDC56A"
         offset="0.2634" />
      <stop
         id="stop6118"
         style="stop-color:#EDC468"
         offset="0.5807" />
      <stop
         id="stop6120"
         style="stop-color:#EEBF61"
         offset="0.7127" />
      <stop
         id="stop6122"
         style="stop-color:#EFB854"
         offset="0.8102" />
      <stop
         id="stop6124"
         style="stop-color:#F1AC43"
         offset="0.8908" />
      <stop
         id="stop6126"
         style="stop-color:#F49E2D"
         offset="0.9601" />
      <stop
         id="stop6128"
         style="stop-color:#F7941D"
         offset="1" />
    </radialGradient>
  </defs>
  <sodipodi:namedview
     id="base"
     pagecolor="#ffffff"
     bordercolor="#666666"
     borderopacity="1.0"
     inkscape:pageopacity="0"
     inkscape:pageshadow="2"
     inkscape:zoom="0.5"
     inkscape:cx="-519.47312"
     inkscape:cy="-215.54015"
     inkscape:document-units="mm"
     inkscape:current-layer="layer1"
     showgrid="false"
     inkscape:window-width="1920"
     inkscape:window-height="986"
     inkscape:window-x="-11"
     inkscape:window-y="-11"
     inkscape:window-maximized="1"
     fit-margin-top="0"
     fit-margin-left="0"
     fit-margin-right="0"
     fit-margin-bottom="0" />
  <metadata
     id="metadata24666">
    <rdf:RDF>
      <cc:Work
         rdf:about="">
        <dc:format>image/svg+xml</dc:format>
        <dc:type
           rdf:resource="http://purl.org/dc/dcmitype/StillImage" />
        <dc:title />
      </cc:Work>
    </rdf:RDF>
  </metadata>
  <g
     inkscape:label="Layer 1"
     inkscape:groupmode="layer"
     id="layer1"
     transform="translate(-54.988411,-60.342212)">
    <g
       transform="translate(-47.081342,10.812099)"
       id="g24661">
      <path
         style="opacity:0.54000005;fill:#58595b;stroke-width:0.26458332"
         inkscape:connector-curvature="0"
         class="st29"
         d="m 177.33685,103.78557 m 3.10092,-2.06375 c 1.44991,-1.5531 1.44461,-4.704289 2.01083,-6.720419 0.5027,-1.78593 1.76213,-4.99533 0.61913,-6.74158 -0.005,-0.005 -0.0106,-0.0106 -0.0132,-0.0159 -0.0556,-0.39688 -0.127,-0.7964 -0.17463,-1.18798 -0.17727,-1.46315 -0.508,-2.90513 -0.84137,-4.34182 -0.09,-0.57679 -0.21696,-1.15622 -0.39159,-1.74095 -0.12435,-0.41011 -0.39158,-0.49742 -0.6694,-0.40217 -0.51328,-1.44728 -1.18268,-2.84163 -1.91557,-4.15661 0.0238,-0.14552 0.0106,-0.29633 -0.0582,-0.43921 -0.34396,-0.71172 -0.78846,-1.34408 -1.23296,-1.99495 -0.0423,-0.0635 -0.10054,-0.14817 -0.16404,-0.23813 0.19843,-0.31221 0.28045,-0.70644 0.0979,-1.01864 -0.22754,-0.3863 -0.51329,-0.84138 -0.94456,-0.91546 -0.2884,-0.50006 -0.7964,-0.825502 -1.41023,-1.068919 -0.34131,-0.134937 -0.635,0.03969 -0.83344,0.3175 -0.127,-0.24077 -0.26193,-0.47625 -0.39422,-0.714375 -0.59796,-0.156105 -1.19063,-0.341312 -1.78065,-0.537105 0.0106,0.0344 0.0212,0.06879 0.0397,0.0979 1.00806,1.695979 2.29658,3.966099 2.76225,5.868459 0.0344,0.14287 1.66158,4.79689 2.01083,5.6515 0.14023,0.61912 0.28046,1.23825 0.4789,1.84679 2.15106,6.5749 1.43668,14.5415 -3.22263,19.920479 -1.10331,1.27529 -2.32569,2.38919 -3.62479,3.38667 -0.008,-0.1614 -6.5405,4.6355 -9.93775,6.01927 -2.23308,0.91016 -4.45294,1.53723 -7.39775,2.30716 -1.78594,0.46567 -2.92629,0.38365 -4.75721,0.38365 -0.47889,0 -3.70153,-0.36248 -3.92643,-0.84667 -0.3466,-0.74348 -2.19339,0.15611 -1.90235,0.78052 0.0106,0.0212 0.0185,0.037 0.0291,0.0556 0,0 18.50233,5.61444 30.38211,-5.56949 0.59003,-0.55298 1.17211,-1.10861 1.778,-1.61132 0.0635,-0.0529 0.11378,-0.11112 0.15875,-0.17198 1.60337,-1.20384 3.16178,-2.80987 4.07459,-4.5614 z m -32.57022,14.63411 c -0.34395,-0.11113 -0.68792,-0.23019 -1.02923,-0.35719 0.381,0 0.75936,-0.008 1.14036,-0.0106 -0.0582,0.11907 -0.0979,0.24342 -0.11113,0.36778 z"
         id="path4043" />
      <path
         style="clip-rule:evenodd;fill-rule:evenodd;stroke-width:0.26458332"
         inkscape:connector-curvature="0"
         class="st27"
         d="m 176.89763,71.704841 c 2.52414,-1.976437 -6.95325,-7.985124 -10.60184,-8.704791 -4.22805,-2.413 -8.87943,-4.400021 -14.13405,-5.786437 0.37306,-0.433917 0.51859,-1.158875 0.35984,-1.740959 -0.26723,-0.973666 -1.29647,-1.182687 -2.56116,-1.127125 0.39157,-0.812271 0.88106,-2.058458 0.46037,-3.124729 -0.39952,-1.016 -1.77271,-1.508125 -2.97127,-1.690687 -0.25666,0 -0.5133,0 -0.7673,0 -3.41577,0.492125 -5.42131,2.397125 -6.70984,5.019145 -1.78064,-1.082145 -3.25701,0.60325 -3.17499,2.50825 -3.03213,0.41275 -5.61975,1.529292 -8.14123,2.50825 -2.51884,0.978959 -5.81025,2.709334 -8.10154,3.974042 -5.85788,1.285875 -9.73667,8.106831 -9.77107,8.366121 -0.0185,0.14288 -0.52387,0.72232 -0.71702,0.97367 -2.76225,3.55071 -4.86569,7.23636 -5.58271,12.90638 -0.81756,6.46377 0.24342,12.78202 2.66171,16.898929 1.64306,2.7993 3.76238,5.00592 6.14627,7.17021 l 0.89694,0.79904 c 4.9874,4.4794 12.18406,7.33955 21.91279,6.95061 2.68023,-0.10848 5.03502,-0.62971 7.11729,-1.33086 0.3175,-0.10583 0.6694,-0.29633 0.92075,-0.30691 0.53711,-0.0212 1.30969,0.43127 1.89442,0.61383 2.00819,0.62442 4.20953,1.06892 6.60664,1.07421 3.44754,0.008 6.53258,-0.24606 9.32129,-0.87048 5.47421,-1.22767 9.48531,-3.97669 13.02013,-7.19931 l 0.80169,-0.72231 c 2.08228,-1.76742 3.79149,-4.05078 5.10647,-6.38175 1.66422,-2.952749 2.39183,-6.323549 2.76489,-10.345209 0,-1.03982 0,-2.08227 0,-3.12473 -0.1323,-7.88459 -3.09298,-12.94871 -6.75747,-17.3064 z"
         id="path6032" />
      <path
         style="clip-rule:evenodd;fill:#2a9db7;fill-rule:evenodd;stroke-width:0.26458332"
         inkscape:connector-curvature="0"
         class="st28"
         d="m 138.49072,60.700821 c -0.3519,-1.045104 -0.78581,-2.595563 -0.56356,-4.196292 0.0714,-0.508 0.33337,-1.664229 0.71702,-1.762125 0.44979,-0.113771 0.96837,0.494771 1.0742,0.828146 0.33867,1.058333 -0.5715,2.685521 0.10319,3.471333 0.39688,-0.27252 0.43127,-0.947208 0.46038,-1.553104 0.0926,-1.857375 0.55562,-3.010958 1.53723,-4.302125 1.13506,-1.494896 2.71727,-2.809875 4.91595,-3.005666 1.22504,-0.10848 2.52148,0.34925 2.71464,1.346729 0.14286,0.746125 -0.25666,1.590146 -0.56356,2.124604 -0.32016,0.560917 -0.71967,1.124479 -1.07686,1.55575 -0.58738,0.709083 -1.41024,1.021292 -1.33086,2.330979 0.65087,-0.113771 0.87578,-0.957792 1.43405,-1.449917 0.84667,-0.751416 2.44475,-1.66952 3.63538,-0.724958 -0.23813,1.481667 -1.87325,1.778 -2.45799,3.058583 -0.1217,0.261938 -0.3175,0.751417 -0.0503,1.037167 0.43128,-0.05556 0.43128,-0.611187 0.66675,-0.933979 0.2249,-0.309563 0.52653,-0.754063 0.87048,-0.828146 0.52123,-0.111125 1.59014,0.248708 2.1008,0.415396 4.33652,1.410229 9.85572,3.918479 13.37468,5.897562 -4.84716,1.227667 -10.05416,2.119313 -13.06778,5.191125 -1.10065,1.121834 -2.01612,2.653768 -2.81781,4.196288 -0.39687,0.76465 -0.71966,1.60602 -0.97366,2.54 -0.24606,0.90223 -0.65881,1.80446 -0.82021,2.69346 -0.0529,0.29898 3.73856,-4.35239 3.73856,-4.35239 -0.0238,-0.1958 0.20374,-0.35984 0.30692,-0.46567 2.26219,-2.28865 5.49539,-4.336521 9.78164,-4.611688 3.59305,-0.230187 7.04586,0.505354 10.08856,1.296459 0.8255,0.214312 2.20135,0.518583 2.8681,0.933979 0.42068,0.26194 0.79109,0.91281 1.17739,1.39965 1.12448,1.42081 2.32039,3.01889 3.175,4.55877 1.27529,2.29923 2.13519,5.00856 2.56117,7.72054 1.01335,6.45848 -0.17463,13.05983 -2.56117,17.203209 -1.23296,2.14048 -2.80987,3.94494 -4.65931,5.64885 -3.53749,3.25967 -7.68615,6.06425 -13.16038,7.30779 -2.78606,0.63236 -5.87375,0.889 -9.32127,0.88107 -2.39712,-0.005 -4.59846,-0.45509 -6.60665,-1.08744 -0.58473,-0.18521 -1.35731,-0.64294 -1.89442,-0.62177 -0.25135,0.0106 -0.60589,0.20373 -0.92075,0.31221 -2.08227,0.70908 -4.43706,1.23825 -7.11729,1.34673 -9.72608,0.39422 -16.83015,-2.66965 -21.8149,-7.20196 -3.37343,-3.06652 -6.38704,-6.64104 -7.68085,-11.763379 -1.26735,-5.01914 -1.05833,-12.09146 0.71702,-16.94391 1.28323,-3.50574 3.47927,-6.10394 5.68325,-8.8609 3.81529,-1.193273 8.12536,-2.547939 13.16038,-2.124606 4.56141,0.383646 7.82373,2.666996 10.08856,5.286376 0,0 3.47662,4.40267 3.43164,4.14602 -0.18785,-1.04775 -0.60854,-2.11667 -0.92075,-3.10886 -2.21456,-6.992932 -9.31597,-9.995953 -16.98625,-11.514661 2.05846,-1.375833 5.68061,-2.891896 8.07773,-3.825875 2.37861,-0.926042 4.79161,-2.029354 7.5274,-2.487083"
         id="path6034" />
      <path
         style="fill:#375b9c;stroke:#000000;stroke-width:1.06444514;stroke-linecap:round;stroke-linejoin:round;stroke-miterlimit:10"
         inkscape:connector-curvature="0"
         class="st30"
         d="m 167.39117,64.997654 c 2.52941,-0.177271 5.08793,-0.579437 7.66232,-1.000125 3.22792,-0.529167 6.29444,-0.867833 8.64394,-2.061104 0.47095,-0.238125 0.61384,-0.275167 1.00542,-0.124354 0.24606,0.132292 0.42863,0.513291 0.37042,1.169458 -0.19844,4.990042 -3.86028,7.559146 -7.56709,9.342442 -2.23044,-0.94192 -2.88395,-2.100796 -5.67266,-2.751671 -2.82047,-0.656167 -5.50069,-0.439208 -8.69156,-0.341313 -5.59329,0.17198 -9.62025,1.386417 -13.70542,6.966484 1.63776,-7.397754 9.95098,-10.636254 17.95463,-11.199817 z"
         id="path6036" />
      <path
         style="fill:#375b9c;stroke:#000000;stroke-width:1.06444514;stroke-linecap:round;stroke-linejoin:round;stroke-miterlimit:10"
         inkscape:connector-curvature="0"
         class="st30"
         d="m 120.29532,64.997654 c -2.52941,-0.177271 -5.08793,-0.579437 -7.66233,-1.000125 -3.22792,-0.529167 -6.29444,-0.867833 -8.64394,-2.061104 -0.47096,-0.238125 -0.61383,-0.275167 -1.00541,-0.124354 -0.24607,0.132292 -0.42863,0.513291 -0.37042,1.169458 0.19844,4.990042 3.86292,7.559146 7.56708,9.342442 2.23044,-0.94192 2.88396,-2.100796 5.67267,-2.751671 2.82046,-0.656167 5.50069,-0.439208 8.69156,-0.341313 5.59329,0.17198 9.62025,1.386417 13.70542,6.966484 -1.63513,-7.397754 -9.94833,-10.636254 -17.95463,-11.199817 z"
         id="path6038" />
      <path
         style="fill:#f26922;stroke-width:0.26458332"
         inkscape:connector-curvature="0"
         class="st31"
         d="M 144.57084,102.3674"
         id="path6040" />
      <path
         inkscape:connector-curvature="0"
         style="fill:url(#SVGID_00000135668303358632940530000013551124524289579141_);stroke:#000000;stroke-width:0.52599168;stroke-linejoin:round;stroke-miterlimit:10"
         d="m 139.5517,100.16607 c 0,0 0.0794,2.95011 -3.5216,3.96081 0,0 2.41299,0.27517 3.72533,3.32317 0,0 1.17475,2.68288 3.97404,4.53496 l 0.0476,0.003 h 0.12171 l 0.0476,-0.003 c 2.79664,-1.85208 3.97405,-4.53496 3.97405,-4.53496 1.30969,-3.048 3.72533,-3.32317 3.72533,-3.32317 -3.60098,-1.0107 -3.5216,-3.96081 -3.5216,-3.96081 z"
         id="path6049" />
      <g
         transform="matrix(0.26458333,0,0,0.26458333,-155.13856,-43.627033)"
         id="g6059">
        <path
           style="clip-rule:evenodd;fill-rule:evenodd"
           inkscape:connector-curvature="0"
           class="st27"
           d="m 1128.08,527.1 c 7.22,-0.39 14.44,5.29 17.03,10.26 1.19,2.27 2.35,5.8 1.94,9.68 -0.59,5.47 -4.21,10.46 -7.16,14.52 -1.31,1.81 -2.73,3.86 -4.65,6.19 -1.53,1.87 -4.08,4.89 -5.81,4.84 -1.54,-0.04 -3.75,-3.07 -5.03,-4.65 -1.5,-1.86 -2.95,-3.78 -4.06,-5.42 -2.97,-4.39 -5.73,-7.89 -6.97,-12 -1.25,-4.16 -0.22,-10.19 1.16,-13.55 2.09,-5.06 7.15,-9.53 13.55,-9.87 z m 15.29,19.35 c 0.72,-3.05 0.25,-5.26 -0.71,-7.11 -0.44,-0.84 -0.97,-1.94 -1.43,-2.72 -1.55,-2.63 -9.14,-7.28 -14.11,-5.46 -6.83,2.5 -12.31,9.47 -9.87,17.81 2.08,7.11 9.21,13.74 12.19,19.16 3.88,-4.91 12.06,-13.8 13.93,-21.68 z"
           id="path6051" />
        <path
           style="fill:#faa829;stroke:#000000;stroke-width:0.92909998;stroke-linecap:round;stroke-linejoin:round"
           inkscape:connector-curvature="0"
           class="st33"
           d="m 1144.88,545.9 c 0.82,-3.21 -0.44,-5 -1.51,-6.95 -0.5,-0.88 -0.78,-2.02 -1.3,-2.85 -1.72,-2.76 -9.8,-8.24 -15.35,-6.31 -7.66,2.63 -13.78,9.98 -11.04,18.76 2.34,7.49 10.3,14.47 13.63,20.19 4.34,-5.18 13.49,-14.54 15.57,-22.84 z"
           id="path6053" />
        <path
           style="fill:#f2c87e"
           inkscape:connector-curvature="0"
           class="st34"
           d="m 1124.44,537.65 c -5.13,0 -7.67,9.64 -1.56,9.64 5.13,0 7.67,-9.64 1.56,-9.64 z"
           id="path6055" />
        <path
           style="opacity:0.54000005;fill:#58595b"
           inkscape:connector-curvature="0"
           class="st29"
           d="m 1144.38,540.21 c -0.05,-0.14 -0.79,-1.9 -0.86,-2 -0.25,-2.16 -1.35,-3.17 -2.28,-5.35 -0.45,-1.05 -1.47,-0.87 -2.17,-0.24 -0.95,-0.15 -2.2,0.81 -1.97,1.98 1.9,10.15 -2.7,18.64 -8.53,26.46 -1.79,2.4 -5.3,6.18 -0.44,8.32 3.94,1.73 11.35,-11.55 12.42,-13.52 1.59,-2.91 3.67,-4.76 3.89,-8.05 0.11,-0.73 0.18,-1.56 0.23,-2.41 0.22,-1.47 0.16,-3.81 -0.29,-5.19 z"
           id="path6057" />
      </g>
      <path
         style="fill:#272161;stroke:#000000;stroke-width:0.06614583;stroke-miterlimit:10"
         inkscape:connector-curvature="0"
         class="st35"
         d="m 135.56707,102.11605 c 0,0 -3.302,-0.0926 -2.5691,4.86304 0,-0.003 -0.18256,-3.66977 2.5691,-4.86304 z"
         id="path6061" />
      <path
         style="fill:#272161;stroke:#000000;stroke-width:0.06614583;stroke-miterlimit:10"
         inkscape:connector-curvature="0"
         class="st35"
         d="m 151.23835,102.11605 c 0,0 3.302,-0.0926 2.56911,4.86304 0,-0.003 0.18256,-3.66977 -2.56911,-4.86304 z"
         id="path6063" />
      <g
         transform="matrix(0.26458333,0,0,0.26458333,-155.13856,-43.627033)"
         id="g6103">
        <g
           id="g6099">
          <g
             style="opacity:0.62999998"
             id="XMLID_16_"
             class="st8">
            <g
               id="g6067">
              <path
                 style="fill:#77c9df"
                 inkscape:connector-curvature="0"
                 class="st9"
                 d="m 1107.61,460.2 c 6.13,12.12 8.61,31.47 5.41,48.96 -2.86,15.68 -8.47,23.16 -20.51,29.91 -15.32,8.58 -23.99,11.45 -44.56,13.25 -16.86,1.47 -28.15,-1.71 -36.14,-12.58 -3.99,-5.39 -7.21,-12.62 -8.71,-20.12 -1.58,-7.88 -1.08,-17.7 0.58,-25.75 3.39,-16.42 11.57,-27.27 21.86,-35.61 4.93,-3.99 11.45,-7.81 18.39,-10.46 7.1,-2.7 15.07,-4.4 24,-5.03 18.44,-1.27 33.47,5.14 39.68,17.43 z"
                 id="path6065" />
            </g>
            <g
               id="g6071">
              <path
                 style="fill:none;stroke:#154577;stroke-width:2;stroke-miterlimit:10"
                 inkscape:connector-curvature="0"
                 class="st36"
                 d="m 1043.93,447.8 c -6.93,2.65 -13.46,6.47 -18.39,10.46 -10.29,8.34 -18.47,19.19 -21.86,35.61 -1.66,8.05 -2.16,17.87 -0.58,25.75 1.51,7.5 4.73,14.72 8.71,20.12 8,10.87 19.28,14.06 36.14,12.58 20.58,-1.8 29.24,-4.67 44.56,-13.25 12.04,-6.75 17.65,-14.23 20.51,-29.91 3.2,-17.5 0.72,-36.84 -5.41,-48.96 -6.21,-12.29 -21.25,-18.7 -39.68,-17.43 -8.94,0.63 -16.9,2.33 -24,5.03 z"
                 id="path6069" />
            </g>
          </g>
          <path
             style="fill:#ffffff;stroke:#000000;stroke-width:1.92700005;stroke-miterlimit:10"
             inkscape:connector-curvature="0"
             class="st37"
             d="m 1085.76,464.25 c 6.06,5.54 9.2,10.97 11.24,20.63 2.07,9.87 -0.25,19.55 -3.93,26.3 -6.24,11.45 -6.51,13.22 -16.76,12.52 -5.42,-0.37 -10.45,-1.38 -17.08,1.07 -5.54,2.05 -14.64,7.15 -17.22,7.13 -11.91,-0.1 -18.6,-26.61 -19.26,-36.98 -0.66,-10.21 2.75,-18.62 6.96,-24.65 6.82,-9.79 17.84,-17.19 33.91,-15.89 9.68,0.78 16.77,4.96 22.14,9.87 z"
             id="path6074" />
          <radialGradient
             id="radialGradient24097"
             cx="1062.0017"
             cy="548.90771"
             r="29.3442"
             gradientTransform="matrix(1,0,0,0.9283,0,-9.9753)"
             gradientUnits="userSpaceOnUse">
            <stop
               offset="0.2634"
               style="stop-color:#EDC56A"
               id="stop24083" />
            <stop
               offset="0.5807"
               style="stop-color:#EDC468"
               id="stop24085" />
            <stop
               offset="0.7127"
               style="stop-color:#EEBF61"
               id="stop24087" />
            <stop
               offset="0.8102"
               style="stop-color:#EFB854"
               id="stop24089" />
            <stop
               offset="0.8908"
               style="stop-color:#F1AC43"
               id="stop24091" />
            <stop
               offset="0.9601"
               style="stop-color:#F49E2D"
               id="stop24093" />
            <stop
               offset="1"
               style="stop-color:#F7941D"
               id="stop24095" />
          </radialGradient>
          <path
             inkscape:connector-curvature="0"
             style="fill:url(#SVGID_00000044155583812745971030000004623724518828457897_)"
             d="m 1080.85,478.3 c 4.48,4.09 6.79,8.1 8.3,15.23 1.53,7.28 -0.19,14.43 -2.9,19.41 -4.6,8.45 -4.81,9.76 -12.37,9.24 -4,-0.27 -7.72,-1.02 -12.61,0.79 -4.09,1.51 -10.81,5.28 -12.71,5.26 -8.79,-0.07 -13.73,-19.64 -14.22,-27.3 -0.49,-7.54 2.03,-13.75 5.14,-18.2 5.03,-7.23 13.17,-12.69 25.03,-11.73 7.15,0.58 12.38,3.67 16.34,7.3 z"
             id="path6091" />
          <ellipse
             cx="1063.29"
             cy="506.60999"
             rx="16.209999"
             ry="17.030001"
             id="ellipse6093" />
          <path
             style="fill:#ffffff"
             inkscape:connector-curvature="0"
             class="st39"
             d="m 1048.75,483.91 c -7.86,0 -11.76,13.72 -2.4,13.72 7.87,0 11.77,-13.72 2.4,-13.72 z"
             id="path6095" />
          <ellipse
             style="opacity:0.15;fill:#d1d3d4"
             class="st40"
             cx="1064.66"
             cy="511.63"
             rx="14.96"
             ry="11.89"
             id="ellipse6097" />
        </g>
        <path
           style="fill:none;stroke:#000000;stroke-width:3;stroke-linecap:round;stroke-miterlimit:10"
           inkscape:connector-curvature="0"
           class="st41"
           d="m 1089.44,528.3 c 0,0 -12.65,-9.82 -31.33,-3.02 -20.53,7.48 -23.44,14.39 -33.68,5.71"
           id="path6101" />
      </g>
      <g
         transform="matrix(0.26458333,0,0,0.26458333,-155.13856,-43.627033)"
         id="g6143">
        <g
           id="g6139">
          <g
             id="XMLID_15_">
            <g
               id="g6107">
              <path
                 style="fill:#77c9df"
                 inkscape:connector-curvature="0"
                 class="st9"
                 d="m 1155.6,460.2 c -6.13,12.12 -8.61,31.47 -5.41,48.96 2.86,15.68 8.47,23.16 20.51,29.91 15.32,8.58 23.99,11.45 44.56,13.25 16.86,1.47 28.15,-1.71 36.14,-12.58 3.99,-5.39 7.21,-12.62 8.71,-20.12 1.57,-7.88 1.08,-17.7 -0.58,-25.75 -3.39,-16.42 -11.57,-27.27 -21.86,-35.61 -4.93,-3.99 -11.45,-7.81 -18.39,-10.46 -7.1,-2.7 -15.07,-4.4 -24,-5.03 -18.43,-1.27 -33.46,5.14 -39.68,17.43 z"
                 id="path6105" />
            </g>
            <g
               id="g6111">
              <path
                 style="fill:none;stroke:#154577;stroke-width:2;stroke-miterlimit:10"
                 inkscape:connector-curvature="0"
                 class="st36"
                 d="m 1219.29,447.8 c 6.93,2.65 13.46,6.47 18.39,10.46 10.29,8.34 18.47,19.19 21.86,35.61 1.66,8.05 2.16,17.87 0.58,25.75 -1.51,7.5 -4.73,14.72 -8.71,20.12 -8,10.87 -19.28,14.06 -36.14,12.58 -20.58,-1.8 -29.24,-4.67 -44.56,-13.25 -12.04,-6.75 -17.65,-14.23 -20.51,-29.91 -3.2,-17.5 -0.72,-36.84 5.41,-48.96 6.21,-12.29 21.25,-18.7 39.68,-17.43 8.93,0.63 16.89,2.33 24,5.03 z"
                 id="path6109" />
            </g>
          </g>
          <path
             style="fill:#ffffff;stroke:#000000;stroke-width:1.92700005;stroke-miterlimit:10"
             inkscape:connector-curvature="0"
             class="st37"
             d="m 1177.45,464.25 c -6.06,5.54 -9.2,10.97 -11.24,20.63 -2.07,9.87 0.25,19.55 3.93,26.3 6.24,11.45 6.51,13.22 16.76,12.52 5.42,-0.37 10.45,-1.38 17.08,1.07 5.54,2.05 14.64,7.15 17.22,7.13 11.91,-0.1 18.6,-26.61 19.26,-36.98 0.66,-10.21 -2.75,-18.62 -6.96,-24.65 -6.82,-9.79 -17.84,-17.19 -33.91,-15.89 -9.68,0.78 -16.77,4.96 -22.14,9.87 z"
             id="path6114" />
          <radialGradient
             id="radialGradient24126"
             cx="1099.8439"
             cy="548.90771"
             r="29.3442"
             gradientTransform="matrix(-1,0,0,0.9283,2301.0574,-9.9753)"
             gradientUnits="userSpaceOnUse">
            <stop
               offset="0.2634"
               style="stop-color:#EDC56A"
               id="stop24112" />
            <stop
               offset="0.5807"
               style="stop-color:#EDC468"
               id="stop24114" />
            <stop
               offset="0.7127"
               style="stop-color:#EEBF61"
               id="stop24116" />
            <stop
               offset="0.8102"
               style="stop-color:#EFB854"
               id="stop24118" />
            <stop
               offset="0.8908"
               style="stop-color:#F1AC43"
               id="stop24120" />
            <stop
               offset="0.9601"
               style="stop-color:#F49E2D"
               id="stop24122" />
            <stop
               offset="1"
               style="stop-color:#F7941D"
               id="stop24124" />
          </radialGradient>
          <path
             inkscape:connector-curvature="0"
             style="fill:url(#SVGID_00000157288002426651083930000006185072360762710692_)"
             d="m 1182.36,478.3 c -4.48,4.09 -6.79,8.1 -8.3,15.23 -1.53,7.28 0.19,14.43 2.9,19.41 4.6,8.45 4.81,9.76 12.37,9.24 4,-0.27 7.72,-1.02 12.61,0.79 4.09,1.51 10.81,5.28 12.71,5.26 8.79,-0.07 13.73,-19.64 14.22,-27.3 0.49,-7.54 -2.03,-13.75 -5.14,-18.2 -5.03,-7.23 -13.17,-12.69 -25.03,-11.73 -7.14,0.58 -12.38,3.67 -16.34,7.3 z"
             id="path6131" />
          <ellipse
             cx="1199.9301"
             cy="506.60999"
             rx="16.209999"
             ry="17.030001"
             id="ellipse6133" />
          <path
             style="fill:#ffffff"
             inkscape:connector-curvature="0"
             class="st39"
             d="m 1194.36,485.08 c 4.02,6.81 -5.87,17.2 -10.66,9.09 -4.02,-6.81 5.87,-17.2 10.66,-9.09 z"
             id="path6135" />
          <ellipse
             style="opacity:0.15;fill:#d1d3d4"
             class="st40"
             cx="1198.55"
             cy="511.63"
             rx="14.96"
             ry="11.89"
             id="ellipse6137" />
        </g>
        <path
           style="fill:none;stroke:#000000;stroke-width:3;stroke-linecap:round;stroke-miterlimit:10"
           inkscape:connector-curvature="0"
           class="st41"
           d="m 1173.77,528.3 c 0,0 12.65,-9.82 31.33,-3.02 20.53,7.48 23.44,14.39 33.68,5.71"
           id="path6141" />
      </g>
    </g>
  </g>
</svg>
