<?xml version="1.0" encoding="UTF-8" standalone="no"?>
<!-- Created with Inkscape (http://www.inkscape.org/) -->

<svg
   xmlns:dc="http://purl.org/dc/elements/1.1/"
   xmlns:cc="http://creativecommons.org/ns#"
   xmlns:rdf="http://www.w3.org/1999/02/22-rdf-syntax-ns#"
   xmlns:svg="http://www.w3.org/2000/svg"
   xmlns="http://www.w3.org/2000/svg"
   xmlns:sodipodi="http://sodipodi.sourceforge.net/DTD/sodipodi-0.dtd"
   xmlns:inkscape="http://www.inkscape.org/namespaces/inkscape"
   width="39.414116mm"
   height="41.436764mm"
   viewBox="0 0 39.414116 41.436764"
   version="1.1"
   id="svg25657"
   inkscape:version="0.92.4 (5da689c313, 2019-01-14)"
   sodipodi:docname="right-leg.svg"
   inkscape:export-filename="C:\Users\rsr\projects\owl\public\svg\left-leg.png"
   inkscape:export-xdpi="130.42999"
   inkscape:export-ydpi="130.42999">
  <defs
     id="defs25651" />
  <sodipodi:namedview
     id="base"
     pagecolor="#ffffff"
     bordercolor="#666666"
     borderopacity="1.0"
     inkscape:pageopacity="0.0"
     inkscape:pageshadow="2"
     inkscape:zoom="0.35355339"
     inkscape:cx="-1458.8973"
     inkscape:cy="115.25326"
     inkscape:document-units="mm"
     inkscape:current-layer="layer1"
     showgrid="false"
     inkscape:window-width="1920"
     inkscape:window-height="986"
     inkscape:window-x="-11"
     inkscape:window-y="-11"
     inkscape:window-maximized="1"
     fit-margin-top="0"
     fit-margin-left="0"
     fit-margin-right="0"
     fit-margin-bottom="0" />
  <metadata
     id="metadata25654">
    <rdf:RDF>
      <cc:Work
         rdf:about="">
        <dc:format>image/svg+xml</dc:format>
        <dc:type
           rdf:resource="http://purl.org/dc/dcmitype/StillImage" />
        <dc:title></dc:title>
      </cc:Work>
    </rdf:RDF>
  </metadata>
  <g
     inkscape:label="Layer 1"
     inkscape:groupmode="layer"
     id="layer1"
     transform="translate(-88.394135,-137.94233)">
    <g
       transform="matrix(-1,0,0,1,219.83361,-41.404259)"
       id="g25649">
      <path
         style="fill:#f26622;stroke:#6c3716;stroke-width:0.40211374;stroke-miterlimit:10"
         inkscape:connector-curvature="0"
         class="st15"
         d="m 115.32196,209.81376 c 0,0 1.27793,1.22502 0.27251,3.77032 -1.00541,2.54793 2.81517,3.5507 2.81517,3.5507 0,0 11.12573,-2.74902 10.85586,-5.02708 0,0 -9.04611,1.34144 -9.51708,-5.02708 l -5.49539,1.54252 0.60855,0.55827 z"
         id="path4002" />
      <ellipse
         style="fill:#f26622;stroke:#6c3716;stroke-width:0.34273034;stroke-miterlimit:10"
         transform="rotate(-66.639652)"
         class="st16"
         cx="-152.4337"
         cy="192.10826"
         rx="4.0453501"
         ry="3.3415811"
         id="ellipse4004" />
      <ellipse
         style="fill:#f26622;stroke:#6c3716;stroke-width:0.30775049;stroke-miterlimit:10"
         transform="rotate(-6.7071587)"
         class="st17"
         cx="102.39443"
         cy="228.91696"
         rx="2.8391047"
         ry="3.8392737"
         id="ellipse4006" />
      <path
         style="fill:#2c91b5;stroke:#000000;stroke-width:0.76533377;stroke-miterlimit:10"
         inkscape:connector-curvature="0"
         class="st18"
         d="m 120.75384,179.37081 c 0,0 -0.38894,6.13304 0.77788,8.76035 0,0 7.49565,9.14929 -1.2647,19.85698 0,0 -5.83937,6.32619 -10.414,-3.11415 0,0 -9.3451,-8.08037 -17.814404,-7.78668"
         id="path4008" />
      <path
         style="opacity:0.25;fill:#23366f;stroke-width:0.26458332"
         inkscape:connector-curvature="0"
         class="st19"
         d="m 120.52896,179.37081 c 0,0 -0.37043,6.07218 0.74082,8.67304 0,0 7.13317,9.05933 -1.20386,19.66118 0,0 -5.55889,6.26534 -9.91128,-3.08504 0,0 6.05367,3.83646 6.05367,-3.47133 0,0 1.66422,-8.84502 -1.47903,-9.80546 0,0 -4.99003,-3.84439 -1.10861,-9.61231"
         id="path4010" />
      <path
         style="fill:none;stroke:#6c3716;stroke-width:0.32691917;stroke-miterlimit:10"
         inkscape:connector-curvature="0"
         class="st44"
         d="m 115.89609,211.09435 c 0,0 1.73038,-1.89177 4.88422,-1.29646"
         id="path4045" />
      <path
         style="fill:none;stroke:#6c3716;stroke-width:0.3407304;stroke-miterlimit:10"
         inkscape:connector-curvature="0"
         class="st45"
         d="m 116.04956,212.0442 c 0,0 2.52411,-2.08492 5.99016,-1.09008"
         id="path4047" />
      <path
         style="fill:none;stroke:#6c3716;stroke-width:0.30260396;stroke-miterlimit:10"
         inkscape:connector-curvature="0"
         class="st46"
         d="m 118.12125,212.83531 c 0,0 2.32303,-1.8124 5.59858,-1.06628"
         id="path4049" />
      <path
         style="fill:none;stroke:#6c3716;stroke-width:0.3423973;stroke-miterlimit:10"
         inkscape:connector-curvature="0"
         class="st47"
         d="m 119.11608,213.78251 c 0,0 2.98714,-1.83091 7.1755,-1.10595"
         id="path4051" />
      <ellipse
         style="fill:#f26622;stroke:#6c3716;stroke-width:0.33410424;stroke-miterlimit:10"
         transform="rotate(-2.0572685)"
         class="st48"
         cx="114.65151"
         cy="220.78748"
         rx="3.1433902"
         ry="4.0879946"
         id="ellipse4053" />
      <path
         style="fill:#fefbdb;stroke-width:0.26458332"
         inkscape:connector-curvature="0"
         class="st49"
         d="m 116.63428,216.37278 c 0.21697,-0.69056 0.0238,-1.36789 -0.43126,-1.51077 -0.4551,-0.14287 -1.00013,0.29898 -1.2171,0.98955 -0.21695,0.69056 0.26723,1.48431 0.43129,1.51077 0.12435,0.0185 1.00012,-0.29898 1.21707,-0.98955 z"
         id="path4055" />
      <path
         style="fill:#fefbdb;stroke-width:0.26458332"
         inkscape:connector-curvature="0"
         class="st49"
         d="m 123.46847,216.34368 c -0.0926,-0.71702 -0.55297,-1.24883 -1.02658,-1.18798 -0.47361,0.0609 -0.78052,0.69321 -0.68792,1.41288 0.0926,0.71702 0.86784,1.2356 1.02659,1.18798 0.12171,-0.037 0.78316,-0.69586 0.68791,-1.41288 z"
         id="path4061" />
      <path
         style="fill:#fefbdb;stroke-width:0.26458332"
         inkscape:connector-curvature="0"
         class="st49"
         d="m 129.31577,215.07368 c -0.15082,-0.70908 -0.65352,-1.20121 -1.11919,-1.10067 -0.46567,0.10055 -0.72231,0.75407 -0.5715,1.46315 0.15081,0.70908 0.96573,1.15887 1.11919,1.10067 0.1164,-0.045 0.72231,-0.75671 0.5715,-1.46315 z"
         id="path4063" />
    </g>
  </g>
</svg>
