<?xml version="1.0" encoding="UTF-8" standalone="no"?>
<!-- Created with Inkscape (http://www.inkscape.org/) -->

<svg
   xmlns:dc="http://purl.org/dc/elements/1.1/"
   xmlns:cc="http://creativecommons.org/ns#"
   xmlns:rdf="http://www.w3.org/1999/02/22-rdf-syntax-ns#"
   xmlns:svg="http://www.w3.org/2000/svg"
   xmlns="http://www.w3.org/2000/svg"
   xmlns:sodipodi="http://sodipodi.sourceforge.net/DTD/sodipodi-0.dtd"
   xmlns:inkscape="http://www.inkscape.org/namespaces/inkscape"
   width="39.330967mm"
   height="41.401436mm"
   viewBox="0 0 39.330967 41.401436"
   version="1.1"
   id="svg25743"
   inkscape:version="0.92.4 (5da689c313, 2019-01-14)"
   sodipodi:docname="right-leg.svg"
   inkscape:export-filename="C:\Users\rsr\projects\owl\public\svg\right-leg.png"
   inkscape:export-xdpi="130.42999"
   inkscape:export-ydpi="130.42999">
  <defs
     id="defs25737" />
  <sodipodi:namedview
     id="base"
     pagecolor="#ffffff"
     bordercolor="#666666"
     borderopacity="1.0"
     inkscape:pageopacity="0.0"
     inkscape:pageshadow="2"
     inkscape:zoom="0.35"
     inkscape:cx="-867.10233"
     inkscape:cy="43.953222"
     inkscape:document-units="mm"
     inkscape:current-layer="layer1"
     showgrid="false"
     inkscape:window-width="1920"
     inkscape:window-height="986"
     inkscape:window-x="-11"
     inkscape:window-y="-11"
     inkscape:window-maximized="1"
     fit-margin-top="0"
     fit-margin-left="0"
     fit-margin-right="0"
     fit-margin-bottom="0" />
  <metadata
     id="metadata25740">
    <rdf:RDF>
      <cc:Work
         rdf:about="">
        <dc:format>image/svg+xml</dc:format>
        <dc:type
           rdf:resource="http://purl.org/dc/dcmitype/StillImage" />
        <dc:title />
      </cc:Work>
    </rdf:RDF>
  </metadata>
  <g
     inkscape:label="Layer 1"
     inkscape:groupmode="layer"
     id="layer1"
     transform="translate(-74.828563,-119.06119)">
    <g
       id="g25634"
       transform="translate(13.62246,-59.314375)">
      <path
         style="fill:#f26622;stroke:#6c3716;stroke-width:0.46029562;stroke-miterlimit:10"
         inkscape:connector-curvature="0"
         class="st12"
         d="m 81.595514,211.17372 c 0,0 -2.688167,0.51065 -3.222625,-2.38919 -0.195792,-1.06891 -3.12473,-0.35718 -3.325813,0.93134 -0.685271,4.37621 -5.098521,2.8575 -5.939896,2.69081 0,0 -8.326438,-2.97392 -7.630584,3.19088 0,0 0.431271,2.26747 2.217208,2.00289 0,0 1.071562,2.01083 3.770313,1.71979 0,0 2.645834,1.42611 6.037792,-2.85221 0,0 3.778251,-2.10343 8.247063,-1.524 0,0 6.474355,0.508 5.550959,-2.10343 0,0.003 0.306916,-2.89984 -5.704417,-1.66688 z"
         id="path3996" />
      <path
         style="fill:#f26622;stroke:#6c3716;stroke-width:0.38809082;stroke-linecap:round;stroke-miterlimit:10"
         inkscape:connector-curvature="0"
         class="st13"
         d="m 69.612534,214.50483 c 0,0 -5.058834,0.58208 -2.148417,4.81541"
         id="path3998" />
      <path
         style="fill:#2c91b5;stroke:#000000;stroke-width:0.76533377;stroke-miterlimit:10"
         inkscape:connector-curvature="0"
         class="st18"
         d="m 71.808576,178.39978 c 0,0 0.388937,6.13305 -0.777875,8.76036 0,0 -7.495647,9.14929 1.264708,19.85698 0,0 5.839355,6.32619 10.414001,-3.11415 0,0 9.345086,-8.08037 17.8144,-7.78669"
         id="path4012" />
      <path
         style="opacity:0.25;fill:#23366f;stroke-width:0.26458332"
         inkscape:connector-curvature="0"
         class="st19"
         d="m 72.004367,178.39978 c 0,0 0.367771,6.07219 -0.735541,8.67305 0,0 -7.080251,9.05933 1.195916,19.66118 0,0 5.516564,6.26534 9.839855,-3.08504 0,0 -6.008688,3.83646 -6.008688,-3.47133 0,0 -1.651,-8.84502 1.468438,-9.80546 0,0 4.953,-3.8444 1.100667,-9.61231"
         id="path4014" />
      <path
         style="fill:#fefbdb;stroke-width:0.26458332"
         inkscape:connector-curvature="0"
         class="st49"
         d="m 87.569806,212.71095 c -0.291042,-0.49477 -0.791104,-0.74083 -1.116542,-0.54769 -0.325437,0.1905 -0.354542,0.74877 -0.0635,1.24355 0.291042,0.49477 1.016,0.63235 1.116542,0.54768 0.07673,-0.0635 0.354541,-0.74877 0.0635,-1.24354 z"
         id="path4057" />
      <path
         style="fill:#fefbdb;stroke-width:0.26458332"
         inkscape:connector-curvature="0"
         class="st49"
         d="m 76.975889,216.29606 c 0.216958,-0.69057 0.02381,-1.3679 -0.431271,-1.51078 -0.455084,-0.14287 -1.000126,0.29898 -1.217084,0.98955 -0.216958,0.69056 0.267229,1.48431 0.431271,1.51077 0.121708,0.0212 1.000126,-0.29898 1.217084,-0.98954 z"
         id="path4059" />
      <path
         style="fill:#fefbdb;stroke-width:0.26458332"
         inkscape:connector-curvature="0"
         class="st49"
         d="m 68.670617,217.44435 c -0.150812,-0.70909 -0.653521,-1.20121 -1.119187,-1.10067 -0.465667,0.10054 -0.722313,0.75406 -0.5715,1.46315 0.150812,0.70908 0.965729,1.15887 1.119187,1.10066 0.116417,-0.045 0.722313,-0.75406 0.5715,-1.46314 z"
         id="path4065" />
      <path
         style="fill:#f26622;stroke:#6c3716;stroke-width:0.46029562;stroke-miterlimit:10"
         inkscape:connector-curvature="0"
         class="st12"
         d="m 66.080346,211.74258 c 0,0 0.894292,0.49741 0.994834,1.24354 0,0 1.8415,-0.44715 3.307291,0.99483 0,0 2.029355,0.2249 3.116792,2.48708"
         id="path4067" />
      <path
         style="fill:#f26622;stroke:#6c3716;stroke-width:0.38809082;stroke-linecap:round;stroke-miterlimit:10"
         inkscape:connector-curvature="0"
         class="st13"
         d="m 72.181638,212.82737 c 0,0 1.883833,0.26458 2.809875,2.71198"
         id="path4069" />
      <path
         style="fill:#f26622;stroke:#6c3716;stroke-width:0.38809082;stroke-linecap:round;stroke-miterlimit:10"
         inkscape:connector-curvature="0"
         class="st13"
         d="m 84.220181,211.04143 c 0,0 -1.256771,0.95779 -0.529167,3.77031"
         id="path4071" />
      <path
         style="fill:#f26622;stroke:#6c3716;stroke-width:0.38809082;stroke-linecap:round;stroke-miterlimit:10"
         inkscape:connector-curvature="0"
         class="st13"
         d="m 82.005618,211.13933 c 0,0 -1.55575,0.6932 -0.859896,3.63802"
         id="path4073" />
      <path
         style="fill:#f26622;stroke:#6c3716;stroke-width:0.46029562;stroke-miterlimit:10"
         inkscape:connector-curvature="0"
         class="st12"
         d="m 74.589346,211.45683 c 0,0 1.680105,0.61118 3.130022,3.59039"
         id="path4075" />
      <path
         style="fill:#f26622;stroke:#6c3716;stroke-width:0.46029562;stroke-miterlimit:10"
         inkscape:connector-curvature="0"
         class="st12"
         d="m 74.896263,210.50168 c 0,0 1.449917,1.14565 4.238626,0"
         id="path4077" />
      <path
         style="fill:#f26622;stroke:#6c3716;stroke-width:0.46029562;stroke-linecap:round;stroke-miterlimit:10"
         inkscape:connector-curvature="0"
         class="st50"
         d="m 66.577762,213.30891 c 0,0 -4.937125,0.32279 -2.886604,4.0931"
         id="path4079" />
      <path
         style="fill:#fefbdb;stroke-width:0.26458332"
         inkscape:connector-curvature="0"
         class="st49"
         d="m 65.765491,216.36485 c -0.0926,-0.71702 -0.552979,-1.24884 -1.026583,-1.18798 -0.473604,0.0609 -0.780521,0.69321 -0.687917,1.41287 0.0926,0.71702 0.867834,1.23561 1.026584,1.18798 0.121708,-0.0344 0.783166,-0.69585 0.687916,-1.41287 z"
         id="path4081" />
    </g>
  </g>
</svg>
